<?xml version="1.0" encoding="utf-8"?>
<!-- Generator: Adobe Illustrator 21.0.0, SVG Export Plug-In . SVG Version: 6.00 Build 0)  -->
<svg version="1.1" xmlns="http://www.w3.org/2000/svg" xmlns:xlink="http://www.w3.org/1999/xlink" x="0px" y="0px"
	 viewBox="0 0 1024 1024" style="enable-background:new 0 0 1024 1024;" xml:space="preserve">
<style type="text/css">
	.st0{display:none;}
</style>
<g id="图层_1" class="st0">
</g>
<g id="图层_2">
	<g>
		<path d="M477.8,238.9C477.8,107,370.9,0,238.9,0C107,0,0,107,0,238.9c0,131.9,107,238.9,238.9,238.9h238.9V238.9z"/>
		<path d="M477.8,546.2H238.9C107,546.2,0,653.1,0,785.1C0,917,107,1024,238.9,1024c131.9,0,238.9-107,238.9-238.9V546.2z"/>
		<path d="M546.2,477.8h238.9c132,0,238.9-107,238.9-238.9C1024,107,917,0,785.1,0C653.1,0,546.2,107,546.2,238.9V477.8z"/>
		<path d="M546.2,785.1c0,132,107,238.9,238.9,238.9c132,0,238.9-107,238.9-238.9c0-131.9-107-238.9-238.9-238.9H546.2V785.1z"/>
	</g>
</g>
</svg>
