<?xml version="1.0" encoding="utf-8"?>
<!-- Generator: Adobe Illustrator 21.0.0, SVG Export Plug-In . SVG Version: 6.00 Build 0)  -->
<svg version="1.1" xmlns="http://www.w3.org/2000/svg" xmlns:xlink="http://www.w3.org/1999/xlink" x="0px" y="0px"
	 viewBox="0 0 1024 1024" style="enable-background:new 0 0 1024 1024;" xml:space="preserve">
<style type="text/css">
	.st0{display:none;}
</style>
<g id="图层_1" class="st0">
</g>
<g id="图层_2">
	<g>
		<g>
			<ellipse cx="146.3" cy="273.1" rx="146.3" ry="136.5"/>
		</g>
		<g>
			<ellipse cx="877.7" cy="273.1" rx="146.3" ry="136.5"/>
		</g>
		<g>
			<ellipse cx="512" cy="887.5" rx="146.3" ry="136.5"/>
		</g>
		<g>
			<path d="M241.3,867c-17.4,0-34.8-5.7-48.7-17.4l-12.6-9.8c-12-9.2-25.8-20.1-30-24.1C53.2,725.5,0,605.5,0,477.9
				c0-84,23.7-166.6,68.5-239c20.2-32.7,64.9-43.8,99.9-24.9c35,18.9,46.9,60.6,26.7,93.3c-32,51.6-48.9,110.6-48.9,170.6
				c0,91.2,38,176.9,107.1,241.4c3,2.6,11.9,9.3,19.6,15.2c7.7,5.9,14.5,11.2,17.3,13.5c30,25.2,32.5,68.4,5.5,96.4
				C281.3,859.4,261.4,867,241.3,867z"/>
		</g>
		<g>
			<path d="M512,955.7c-40.4,0-73.1-30.6-73.1-68.3s32.8-68.3,73.1-68.3c97.7,0,189.5-35.5,258.6-100
				c54.1-50.5,89.4-114.3,102-184.4c6.7-37.2,44.1-62.1,84.3-56c39.8,6.3,66.7,41.5,60,78.7c-17.7,98.3-67.1,187.6-142.8,258.3
				C777.3,906,648.7,955.7,512,955.7z"/>
		</g>
		<g>
			<path d="M892.2,341.3c-25.3,0-49.9-12.2-63.4-34.2c-15.8-25.6-35.4-49.4-58.2-70.6C672,144.4,520.6,112.8,390,156
				c-38.1,12.7-79.9-6.1-93.3-41.6c-13.5-35.6,6.5-74.6,44.6-87.1C396.2,9.2,453.6,0,512,0c136.7,0,265.3,49.7,362,140
				c31.8,29.7,59.2,63,81.5,99c20.2,32.6,8.2,74.4-26.8,93.2C917.2,338.4,904.6,341.3,892.2,341.3z"/>
		</g>
	</g>
</g>
</svg>
