<?xml version="1.0" encoding="utf-8"?>
<!-- Generator: Adobe Illustrator 21.0.0, SVG Export Plug-In . SVG Version: 6.00 Build 0)  -->
<svg version="1.1" id="图层_1" xmlns="http://www.w3.org/2000/svg" xmlns:xlink="http://www.w3.org/1999/xlink" x="0px" y="0px"
	 viewBox="0 0 1024 1024" style="enable-background:new 0 0 1024 1024;" xml:space="preserve">
<style type="text/css">
	.st0{display:none;}
</style>
<g id="图层_1_1_" class="st0">
</g>
<g id="图层_2">
	<g>
		<g>
			<path d="M896,128v576H128V128H896 M896,0H128C57.3,0,0,57.3,0,128v576c0,70.7,57.3,128,128,128h768c70.7,0,128-57.3,128-128V128
				C1024,57.3,966.7,0,896,0L896,0z"/>
		</g>
		<path d="M320,640c-35.3,0-64-28.7-64-64V320c0-35.3,28.7-64,64-64s64,28.7,64,64v256C384,611.3,355.3,640,320,640z"/>
		<path d="M512,640c-35.3,0-64-28.7-64-64v-64c0-35.3,28.7-64,64-64s64,28.7,64,64v64C576,611.3,547.3,640,512,640z"/>
		<path d="M704,640c-35.3,0-64-28.7-64-64V384c0-35.3,28.7-64,64-64s64,28.7,64,64v192C768,611.3,739.3,640,704,640z"/>
		<path d="M960,1024H64c-35.3,0-64-28.7-64-64s28.7-64,64-64h896c35.3,0,64,28.7,64,64S995.3,1024,960,1024z"/>
	</g>
</g>
</svg>
