<?xml version="1.0" encoding="utf-8"?>
<!-- Generator: Adobe Illustrator 21.0.0, SVG Export Plug-In . SVG Version: 6.00 Build 0)  -->
<svg version="1.1" xmlns="http://www.w3.org/2000/svg" xmlns:xlink="http://www.w3.org/1999/xlink" x="0px" y="0px"
	 viewBox="0 0 1024 1024" style="enable-background:new 0 0 1024 1024;" xml:space="preserve">
<style type="text/css">
	.st0{display:none;}
</style>
<g id="图层_1" class="st0">
</g>
<g id="图层_2">
	<g>
		<g>
			<g>
				<path d="M602.4,1024H420.7c-36.3,0-65.8-28.4-66-63.6c-0.4-58.9-49.6-106.9-109.7-106.9c-19.4,0-38.2,4.9-54.6,14.2
					c-15.2,8.6-33.3,10.8-50.2,6.6c-17-4.4-31.5-15.1-40.3-29.9L9,691.9c-18.2-30.5-7.4-69.6,24-87.3c52.6-29.7,70.9-95,40.8-145.6
					c-9.8-16.5-23.4-29.6-40.4-38.9c-15.3-8.4-26.5-22.4-31.1-38.9c-4.6-16.4-2.2-34,6.5-48.8l90.8-152.5
					c18.2-30.5,58.5-41.1,90.1-23.5c53.1,29.5,120.6,12.2,150.7-38.5c9.8-16.4,14.8-34.8,14.7-53.4c-0.2-17.1,6.7-33.5,19.2-45.6
					C386.7,6.8,403.6,0,421.2,0h181.6c36.5,0,66,28.7,66,64c0,59.3,49.2,107.5,109.7,107.5c19.5,0,38.5-4.9,54.9-14.3
					c15.1-8.7,33.2-11.1,50.3-6.8c17,4.3,31.6,15.1,40.4,29.9l90.9,152.5c18.3,30.6,7.5,69.7-24.1,87.4
					c-52.8,29.7-71.3,95.1-41.1,145.8l0,0c9.5,16.1,23.5,29.5,40.3,39c31.5,17.7,42.3,56.8,24.1,87.4l-90.8,152.5
					c-18.2,30.6-58.4,41.1-90,23.5c-52.9-29.3-120.3-12-150.5,38.6c-9.6,16.2-14.7,34.4-14.6,52.8c0.1,17-6.9,33.3-19.3,45.4
					C636.8,1017.2,619.9,1024,602.4,1024z M477.4,896h68.1c5.4-18.5,13.2-36.3,23.2-53.1c55-92.5,166.5-134.6,268.9-109.7l34-57.1
					c-13.9-13.9-26.1-29.3-36.1-46.1v0c-55.1-92.7-37-207.4,36.8-280.9l-33.9-56.8c-19.4,4.8-39.5,7.3-59.8,7.3
					c-110.6,0-204-72.6-232.8-171.5h-67.5c-5.5,18.8-13.3,36.9-23.5,54c-55,92.7-166.6,134.8-269.2,109.7l-33.9,56.8
					c14,13.9,26.2,29.4,36.3,46.4c55.1,92.5,37.1,207.1-36.3,280.6l34,57.1c19.3-4.7,39.1-7.1,59.2-7.1
					C354.9,725.5,448.3,797.7,477.4,896z"/>
			</g>
		</g>
		<g>
			<path d="M511.9,640c-72.9,0-132-57.3-132-128s59.1-128,132-128c72.9,0,132,57.3,132,128S584.9,640,511.9,640L511.9,640z"/>
		</g>
	</g>
</g>
</svg>
