<?xml version="1.0" encoding="utf-8"?>
<!-- Generator: Adobe Illustrator 21.0.0, SVG Export Plug-In . SVG Version: 6.00 Build 0)  -->
<svg version="1.1" xmlns="http://www.w3.org/2000/svg" xmlns:xlink="http://www.w3.org/1999/xlink" x="0px" y="0px"
	 viewBox="0 0 1024 1024" style="enable-background:new 0 0 1024 1024;" xml:space="preserve">
<style type="text/css">
	.st0{display:none;}
</style>
<g id="图层_1" class="st0">
</g>
<g id="图层_2">
	<g>
		<path d="M480,192c194.1,0,352,157.9,352,352S674.1,896,480,896S128,738.1,128,544S285.9,192,480,192 M480,64
			C214.9,64,0,278.9,0,544c0,265,214.9,480,480,480c265,0,480-214.9,480-480C959.9,278.9,745,64,480,64L480,64z"/>
		<path d="M704,544c0,123.6-100.4,224-224,224c-123.6,0-224-100.4-224-224c0-123.7,100.4-224,224-224C603.6,320,704,420.3,704,544z"
			/>
		<g>
			<g>
				<path d="M480,592c-12.3,0-24.6-4.7-33.9-14.1c-18.7-18.7-18.7-49.1,0-67.9l416-416c18.7-18.7,49.1-18.7,67.9,0s18.7,49.1,0,67.9
					l-416,416C504.5,587.3,492.3,592,480,592z"/>
			</g>
		</g>
		<g>
			<polygon points="1024,160 864,160 864,0 928,0 928,96 1024,96 			"/>
		</g>
	</g>
</g>
</svg>
