<?xml version="1.0" encoding="utf-8"?>
<!-- Generator: Adobe Illustrator 21.0.0, SVG Export Plug-In . SVG Version: 6.00 Build 0)  -->
<svg version="1.1" id="图层_1" xmlns="http://www.w3.org/2000/svg" xmlns:xlink="http://www.w3.org/1999/xlink" x="0px" y="0px"
	 viewBox="0 0 1024 1024" style="enable-background:new 0 0 1024 1024;" xml:space="preserve">
<style type="text/css">
	.st0{display:none;}
</style>
<g id="图层_1_1_" class="st0">
</g>
<g id="图层_2">
	<g>
		<g>
			<path d="M896,128v768H128V128H896 M896,0H128C57.3,0,0,57.3,0,128v768c0,70.7,57.3,128,128,128h768c70.7,0,128-57.3,128-128V128
				C1024,57.3,966.7,0,896,0L896,0z"/>
		</g>
		<g>
			<path d="M320,832c-16.4,0-32.7-6.3-45.2-18.8l-95.4-95.4l-86.7,43.4c-31.7,15.9-70.1,3-85.9-28.6s-3-70.1,28.6-85.9l128-64
				c24.7-12.3,54.4-7.4,73.9,12l82.8,82.7l146.7-146.7c25-25,65.5-25,90.5,0L666.5,640H960c35.3,0,64,28.7,64,64s-28.7,64-64,64H640
				c-17,0-33.2-6.8-45.2-18.8L512,666.5L365.3,813.2C352.8,825.7,336.4,832,320,832z"/>
		</g>
		<path d="M320,512c-35.3,0-64-28.7-64-64V320c0-35.3,28.7-64,64-64s64,28.7,64,64v128C384,483.3,355.4,512,320,512z"/>
		<path d="M512,448c-35.3,0-64-28.7-64-64v-64c0-35.3,28.7-64,64-64s64,28.7,64,64v64C576,419.3,547.4,448,512,448z"/>
		<path d="M704,576c-35.3,0-64-28.7-64-64V320c0-35.3,28.7-64,64-64s64,28.7,64,64v192C768,547.3,739.3,576,704,576z"/>
	</g>
</g>
</svg>
