<?xml version="1.0" encoding="utf-8"?>
<!-- Generator: Adobe Illustrator 21.0.0, SVG Export Plug-In . SVG Version: 6.00 Build 0)  -->
<svg version="1.1" xmlns="http://www.w3.org/2000/svg" xmlns:xlink="http://www.w3.org/1999/xlink" x="0px" y="0px"
	 viewBox="0 0 1024 1024" style="enable-background:new 0 0 1024 1024;" xml:space="preserve">
<style type="text/css">
	.st0{opacity:0.7;}
</style>
<g id="图层_1">
</g>
<g id="图层_2">
	<g id="_x32_8">
		<g class="st0">
			<circle cx="302.3" cy="311" r="54.6"/>
		</g>
		<g>
			<path d="M933.7,1024H193.5C86.8,1024,0,937.2,0,830.5v-637C0,86.8,86.8,0,193.5,0h637C937.2,0,1024,86.8,1024,193.5v593.8
				c0,26.4-21.4,47.8-47.8,47.8c-26.4,0-47.8-21.4-47.8-47.8V193.5c0-54-43.9-97.9-97.9-97.9h-637c-54,0-97.9,43.9-97.9,97.9v637
				c0,54,43.9,97.9,97.9,97.9h740.2c26.4,0,47.8,21.4,47.8,47.8S960.1,1024,933.7,1024z"/>
		</g>
		<g class="st0">
			<path d="M302.3,780.6c-22.6,0-41-18.3-41-41V473.4c0-22.6,18.3-41,41-41c22.6,0,41,18.3,41,41v266.2
				C343.3,762.3,324.9,780.6,302.3,780.6z"/>
		</g>
		<g>
			<path d="M528.4,780.6c-22.6,0-41-18.3-41-41V299.1c0-22.6,18.3-41,41-41c22.6,0,41,18.3,41,41v440.6
				C569.4,762.3,551,780.6,528.4,780.6z"/>
		</g>
		<g>
			<path d="M750.3,780.6c-22.6,0-41-18.3-41-41V552c0-22.6,18.3-41,41-41s41,18.3,41,41v187.7C791.2,762.3,772.9,780.6,750.3,780.6z
				"/>
		</g>
	</g>
</g>
</svg>
