<?xml version="1.0" encoding="utf-8"?>
<!-- Generator: Adobe Illustrator 21.0.0, SVG Export Plug-In . SVG Version: 6.00 Build 0)  -->
<svg version="1.1" id="图层_1" xmlns="http://www.w3.org/2000/svg" xmlns:xlink="http://www.w3.org/1999/xlink" x="0px" y="0px"
	 viewBox="0 0 1024 1024" style="enable-background:new 0 0 1024 1024;" xml:space="preserve">
<style type="text/css">
	.st0{display:none;}
</style>
<g id="图层_1_1_" class="st0">
</g>
<g id="图层_2">
	<g>
		<g>
			<path d="M902.8,511.6c-69.9,0-128.9-56.1-128.9-123.4c0,69.9-56.6,123.4-129.1,123.4c-69.9,0-128.9-56.1-128.9-123.4
				c0,69.9-56.6,123.4-129.1,123.4c-69.8,0-128.9-56.1-128.9-123.4c0,69.9-56.5,123.4-129.1,123.4C59.1,511.6,0,455.5,0,388.2
				L88.7,160h843.7l91.2,228.3C1029.1,458.1,972.6,511.6,902.8,511.6L902.8,511.6z"/>
		</g>
		<path d="M896,64c0,17.7-14.3,32-32,32H160c-17.7,0-32-14.3-32-32l0,0c0-17.7,14.3-32,32-32h704C881.7,32,896,46.3,896,64L896,64z"
			/>
		<g>
			<path d="M896,992H128c-17.7,0-32-14.3-32-32V608h64v256h704V608h64v352C928,977.7,913.7,992,896,992z"/>
		</g>
	</g>
</g>
</svg>
