<?xml version="1.0" encoding="utf-8"?>
<!-- Generator: Adobe Illustrator 21.0.0, SVG Export Plug-In . SVG Version: 6.00 Build 0)  -->
<svg version="1.1" xmlns="http://www.w3.org/2000/svg" xmlns:xlink="http://www.w3.org/1999/xlink" x="0px" y="0px"
	 viewBox="0 0 1024 1024" style="enable-background:new 0 0 1024 1024;" xml:space="preserve">
<style type="text/css">
	.st0{display:none;}
</style>
<g id="图层_1" class="st0">
</g>
<g id="图层_2">
	<g>
		<g>
			<path d="M200,832.2l-5.8-0.3c-10.1-0.5-19.2-3.1-26.7-5.6c-16.7-5.7-34.9-19.4-38.6-22.9c-7.7-8.1-21.5-26.3-26.8-41.8
				c-2.9-8.7-5.5-17.8-6-27.9l-0.3-5.8l26.9-200.7c2.8-21.8,13-42.6,28.5-58.4L593.4,28.4c40.4-37.7,101.3-37.6,140.2-1.6
				l165.8,165.7c37.7,40.6,37.7,101.4,1.7,140.3l-1.6,1.7L459.6,776.3c-16.3,16-37,26.1-59,29L200,832.2z M248.5,552.6l-19.6,146.5
				l146.5-19.6l414-415.8L664.3,138.5L248.5,552.6z M384.1,678.3C384,678.3,384,678.3,384.1,678.3L384.1,678.3z M249.6,543.7
				L249.6,543.7C249.6,543.8,249.6,543.7,249.6,543.7z"/>
		</g>
		<path d="M864.2,1024H160c-35.4,0-64-28.7-64-64s28.7-64,64-64h704.2c35.4,0,64,28.7,64,64S899.6,1024,864.2,1024z"/>
	</g>
</g>
</svg>
