<?xml version="1.0" encoding="utf-8"?>
<!-- Generator: Adobe Illustrator 21.0.0, SVG Export Plug-In . SVG Version: 6.00 Build 0)  -->
<svg version="1.1" id="图层_1" xmlns="http://www.w3.org/2000/svg" xmlns:xlink="http://www.w3.org/1999/xlink" x="0px" y="0px"
	 viewBox="0 0 1024 1024" style="enable-background:new 0 0 1024 1024;" xml:space="preserve">
<style type="text/css">
	.st0{display:none;}
</style>
<g id="图层_1_1_" class="st0">
</g>
<g id="图层_2">
	<g>
		<path d="M448,0H64C28.7,0,0,28.7,0,64v960h512V64C512,28.7,483.3,0,448,0z M448,384H64v-64h384V384z M448,512H64v-64h384V512z
			 M448,640H64v-64h384V640z M320,896H192V768h128V896z"/>
		<path d="M960,320H640c-35.3,0-64,28.7-64,64v640h448V384C1024,348.7,995.3,320,960,320z M960,640H640v-64h320V640z M960,768H640
			v-64h320V768z"/>
	</g>
</g>
</svg>
