<?xml version="1.0" encoding="utf-8"?>
<!-- Generator: Adobe Illustrator 23.0.2, SVG Export Plug-In . SVG Version: 6.00 Build 0)  -->
<svg version="1.1" id="图层_1" xmlns="http://www.w3.org/2000/svg" xmlns:xlink="http://www.w3.org/1999/xlink" x="0px" y="0px"
	 viewBox="0 0 128 128" style="enable-background:new 0 0 128 128;" xml:space="preserve">
<path d="M5.6,44.5l0.8-0.8c3.2-3.2,6.4-6.4,9.6-9.6c1.6-1.6,4.8-1.6,6.4,0c15.2,14.4,16,16,16,16.8v9.6
	C24.8,67.7,12.8,85.3,12,102.9c0,4.8,2.4,8.8,6.4,12H4.8c-2.4,0-4-1.6-4.8-4v-0.8V50.9c0-0.8,0-1.6,4-5.6L5.6,44.5L5.6,44.5z
	 M12,50.1c-3.2,3.2-3.2,8,0,11.2c3.2,3.2,8,3.2,11.2,0c3.2-3.2,3.2-8,0-11.2C20.8,47.7,15.2,47.7,12,50.1L12,50.1z"/>
<path d="M72.7,3c13.6,0,25.6,8.8,30.4,21.6c4,12.8-1.6,27.2-12.8,33.6c21.6,4.8,36.7,23.2,37.5,45.5c0,13.6-28,20-55.1,20
	c-28,0-55.1-6.4-55.1-20c0.8-21.6,16.8-39.9,37.5-45.5c-11.2-7.2-16.8-20.8-12.8-33.6C46.3,11.8,59.1,3,72.7,3L72.7,3z M76.7,63.7
	h-8.8L57.5,98.1c-0.8,1.6,0,3.2,0.8,4l11.2,10.4c0.8,0.8,1.6,0.8,3.2,0.8c0.8,0,2.4,0,2.4-0.8l11.2-11.2c0.8-0.8,1.6-2.4,0.8-4
	L76.7,63.7z M72.7,75.7l7.2,22.4l-7.2,6.4l-7.2-6.4L72.7,75.7z"/>
</svg>
