<?xml version="1.0" encoding="utf-8"?>
<!-- Generator: Adobe Illustrator 23.0.2, SVG Export Plug-In . SVG Version: 6.00 Build 0)  -->
<svg version="1.1" id="图层_1" xmlns="http://www.w3.org/2000/svg" xmlns:xlink="http://www.w3.org/1999/xlink" x="0px" y="0px"
	 viewBox="0 0 120 120" style="enable-background:new 0 0 120 120;" xml:space="preserve">
<style type="text/css">
	.st0{fill:#FFFFFF;}
</style>
<path class="st0" d="M-30.4,57.5l0.1-0.1c0.4-0.4,0.8-0.8,1.2-1.2c0.2-0.2,0.6-0.2,0.8,0c1.9,1.8,2,2,2,2.1v1.2
	c-1.7,0.9-3.2,3.1-3.3,5.3c0,0.6,0.3,1.1,0.8,1.5l-1.7,0c-0.3,0-0.5-0.2-0.6-0.5l0-0.1v-7.4c0-0.1,0-0.2,0.5-0.7l0.2-0.2L-30.4,57.5
	z M-29.6,58.2c-0.4,0.4-0.4,1,0,1.4s1,0.4,1.4,0c0.4-0.4,0.4-1,0-1.4C-28.5,57.9-29.2,57.9-29.6,58.2L-29.6,58.2z M-29.6,58.2"/>
<path class="st0" d="M-22,52.3c1.7,0,3.2,1.1,3.8,2.7c0.5,1.6-0.2,3.4-1.6,4.2c2.7,0.6,4.6,2.9,4.7,5.7c0,1.7-3.5,2.5-6.9,2.5
	c-3.5,0-6.9-0.8-6.9-2.5c0.1-2.7,2.1-5,4.7-5.7c-1.4-0.9-2.1-2.6-1.6-4.2C-25.3,53.4-23.7,52.3-22,52.3L-22,52.3z M-21.5,59.9h-1.1
	l-1.3,4.3c-0.1,0.2,0,0.4,0.1,0.5l1.4,1.3c0.1,0.1,0.2,0.1,0.4,0.1c0.1,0,0.3,0,0.3-0.1l1.4-1.4c0.1-0.1,0.2-0.3,0.1-0.5L-21.5,59.9
	z M-22,61.4l0.9,2.8L-22,65l-0.9-0.8L-22,61.4z M-22,61.4"/>
</svg>
