<?xml version="1.0" encoding="utf-8"?>
<!-- Generator: Adobe Illustrator 21.0.0, SVG Export Plug-In . SVG Version: 6.00 Build 0)  -->
<svg version="1.1" id="图层_1" xmlns="http://www.w3.org/2000/svg" xmlns:xlink="http://www.w3.org/1999/xlink" x="0px" y="0px"
	 viewBox="0 0 1024 1024" style="enable-background:new 0 0 1024 1024;" xml:space="preserve">
<style type="text/css">
	.st0{display:none;}
</style>
<g id="图层_1_1_" class="st0">
</g>
<g id="图层_2">
	<g>
		<path d="M0,0v204.8h887.5V0H0z M136.5,136.5H68.3V68.3h68.3v68.2H136.5z"/>
		<g>
			<g>
				<path d="M170.6,887.8c0-88,42.7-163.7,110.8-205.1H0V1024h211C185.6,985.6,170.6,938.9,170.6,887.8z"/>
			</g>
			<path d="M518.6,531c7.8,0,15.6,0.4,23.3,1.1c56-54.5,131.1-85.6,212-85.6c48.1,0,93,12.3,133.5,32.2V341.3H0v204.8h434.3
				C461,536.7,489.2,531,518.6,531z M68.3,477.9v-68.3h68.3v68.3L68.3,477.9L68.3,477.9z"/>
		</g>
		<g>
			<path d="M956.1,769.7c0.4-5.6,0.7-11.4,0.7-17.1c0-112.4-91-203.7-202.8-203.7c-71.7,0-136.6,37-173.2,97.7
				c-19.4-8.7-40.7-13.3-62.2-13.3c-72.9,0-134.8,51.6-149.2,121.9C312,769.5,273,822,273,887.8c0,77.7,55,136.2,127.9,136.2h487.5
				c74.8,0,135.6-61.1,135.6-136.2C1024,838.9,997.7,794,956.1,769.7L956.1,769.7z"/>
		</g>
	</g>
</g>
</svg>
